<?xml version="1.0" encoding="utf-8"?>
<!-- Generator: Adobe Illustrator 25.2.1, SVG Export Plug-In . SVG Version: 6.00 Build 0)  -->
<svg version="1.1" id="emoji" xmlns="http://www.w3.org/2000/svg" xmlns:xlink="http://www.w3.org/1999/xlink" x="0px" y="0px"
	 viewBox="0 0 72 72" style="enable-background:new 0 0 72 72;" xml:space="preserve">
<style type="text/css">
	.st0{fill:none;stroke:#000000;stroke-width:2;stroke-linecap:round;stroke-linejoin:round;stroke-miterlimit:10;}
</style>
<g id="line">
	<path class="st0" d="M49.8,45.9c0,7-5.7,12.7-12.7,12.7s-12.7-5.7-12.7-12.7"/>
	<line class="st0" x1="49.8" y1="45.2" x2="49.8" y2="36"/>
	<path class="st0" d="M44.4,35.7c0.1-1.5,1.3-2.6,2.8-2.6c1.5,0.1,2.6,1.3,2.6,2.8"/>
	<path class="st0" d="M39,35.6c0.1-1.5,1.3-2.6,2.8-2.6c1.5,0.1,2.6,1.3,2.6,2.8"/>
	<path class="st0" d="M39,35.5c0.1-1.5,1.4-2.6,2.9-2.5c1.5,0.1,2.6,1.4,2.5,2.9"/>
	<path class="st0" d="M33.6,35.2c0.1-1.5,1.4-2.6,2.9-2.5c1.5,0.1,2.6,1.4,2.5,2.9"/>
	<path class="st0" d="M20.6,36.9c-1-1.1-1-2.8,0.1-3.8c1.1-1,2.8-1,3.8,0.1"/>
	<path class="st0" d="M28.2,18c0-1.5,1.2-2.7,2.7-2.7s2.7,1.2,2.7,2.7"/>
	<line class="st0" x1="33.6" y1="35.2" x2="33.6" y2="18"/>
	<line class="st0" x1="28.2" y1="18" x2="28.2" y2="39.4"/>
	<line class="st0" x1="25.9" y1="34.9" x2="24.4" y2="33.2"/>
	<path class="st0" d="M21.9,38.7c1.5,1.7,2.6,4,2.5,7.3"/>
	<line class="st0" x1="20.6" y1="36.9" x2="22" y2="38.7"/>
</g>
</svg>
