<svg width="260" height="260" viewBox="0 0 260 260" fill="none" xmlns="http://www.w3.org/2000/svg">
<rect width="260" height="260" fill="white"/>
<path d="M121.276 101.36C121.969 99.8667 123.116 99.12 124.716 99.12C125.782 99.12 126.742 99.4933 127.596 100.24C128.449 100.933 128.876 101.787 128.876 102.8C128.876 103.173 128.742 103.68 128.476 104.32L105.916 153.76C105.542 154.613 104.956 155.28 104.156 155.76C103.356 156.24 102.502 156.48 101.596 156.48C100.689 156.48 99.809 156.24 98.9556 155.76C98.1556 155.28 97.569 154.613 97.1956 153.76L74.7156 104.32C74.449 103.68 74.3156 103.173 74.3156 102.8C74.3156 101.733 74.7423 100.853 75.5956 100.16C76.5023 99.4667 77.489 99.12 78.5556 99.12C80.209 99.12 81.3823 99.8667 82.0756 101.36L101.676 145.28L121.276 101.36ZM177.241 126.08C178.255 126.08 179.055 126.373 179.641 126.96C180.281 127.547 180.601 128.347 180.601 129.36V148.08C180.601 149.893 180.335 151.2 179.801 152C179.321 152.8 178.335 153.44 176.841 153.92C174.708 154.773 172.175 155.44 169.241 155.92C166.308 156.4 163.401 156.64 160.521 156.64C154.815 156.64 149.881 155.493 145.721 153.2C141.561 150.907 138.388 147.6 136.201 143.28C134.015 138.96 132.921 133.787 132.921 127.76C132.921 121.84 134.015 116.72 136.201 112.4C138.388 108.08 141.508 104.773 145.561 102.48C149.668 100.133 154.468 98.96 159.961 98.96C163.695 98.96 167.135 99.52 170.281 100.64C173.481 101.707 176.201 103.28 178.441 105.36C179.508 106.213 180.041 107.28 180.041 108.56C180.041 109.52 179.775 110.347 179.241 111.04C178.708 111.68 178.068 112 177.321 112C176.841 112 176.415 111.92 176.041 111.76C175.668 111.6 175.188 111.333 174.601 110.96C171.988 109.04 169.615 107.707 167.481 106.96C165.348 106.16 162.895 105.76 160.121 105.76C154.041 105.76 149.401 107.653 146.201 111.44C143.001 115.173 141.401 120.613 141.401 127.76C141.401 135.067 143.028 140.613 146.281 144.4C149.588 148.133 154.415 150 160.761 150C165.028 150 169.135 149.36 173.081 148.08V132.32H162.601C161.535 132.32 160.681 132.053 160.041 131.52C159.455 130.933 159.161 130.16 159.161 129.2C159.161 128.24 159.455 127.493 160.041 126.96C160.681 126.373 161.535 126.08 162.601 126.08H177.241Z" fill="black"/>
</svg>
