<?xml version="1.0" standalone="no"?>
<!DOCTYPE svg PUBLIC "-//W3C//DTD SVG 20010904//EN"
 "http://www.w3.org/TR/2001/REC-SVG-20010904/DTD/svg10.dtd">
<svg version="1.0" xmlns="http://www.w3.org/2000/svg"
 width="700.000000pt" height="700.000000pt" viewBox="0 0 700.000000 700.000000"
 preserveAspectRatio="xMidYMid meet">
<metadata>
Created by potrace 1.11, written by Peter Selinger 2001-2013
</metadata>
<g transform="translate(0.000000,700.000000) scale(0.100000,-0.100000)"
fill="#000000" stroke="none">
<path d="M4206 4329 c-239 -25 -435 -153 -534 -350 -68 -136 -85 -215 -86
-409 -1 -200 15 -281 81 -419 100 -209 289 -333 552 -362 174 -19 452 20 569
80 71 36 72 41 72 380 l0 300 -24 28 -24 28 -198 3 c-224 4 -277 -1 -305 -29
-26 -26 -26 -92 1 -119 18 -18 33 -20 185 -20 l165 0 0 -213 0 -214 -37 -11
c-93 -26 -167 -36 -283 -36 -186 -1 -292 37 -386 136 -60 63 -83 105 -115 208
-22 67 -24 94 -24 255 0 171 2 184 28 259 82 233 240 336 497 323 128 -6 200
-29 308 -99 116 -77 155 -80 187 -17 26 50 13 90 -46 143 -131 117 -359 178
-583 155z"/>
<path d="M2064 4320 c-28 -11 -64 -58 -64 -83 0 -11 131 -308 291 -661 368
-809 337 -745 373 -767 57 -35 150 -17 177 34 45 83 621 1358 626 1383 13 76
-110 136 -170 83 -19 -17 -104 -197 -282 -598 -141 -316 -261 -583 -267 -594
-14 -27 8 -72 -299 616 -216 487 -257 571 -280 583 -31 16 -73 17 -105 4z"/>
</g>
</svg>
