<?xml version="1.0" standalone="no"?>
<!DOCTYPE svg PUBLIC "-//W3C//DTD SVG 20010904//EN"
 "http://www.w3.org/TR/2001/REC-SVG-20010904/DTD/svg10.dtd">
<svg version="1.0" xmlns="http://www.w3.org/2000/svg"
 width="260.000000pt" height="260.000000pt" viewBox="0 0 260.000000 260.000000"
 preserveAspectRatio="xMidYMid meet">
<metadata>
Created by potrace 1.11, written by Peter Selinger 2001-2013
</metadata>
<g transform="translate(0.000000,260.000000) scale(0.100000,-0.100000)"
fill="#000000" stroke="none">
<path d="M755 1594 c-9 -9 -15 -20 -13 -24 2 -4 57 -125 122 -269 l120 -262
34 3 34 3 119 260 c65 143 118 266 119 273 0 7 -11 18 -25 24 -21 9 -29 9 -39
-3 -8 -8 -58 -112 -112 -232 -59 -133 -100 -214 -104 -205 -4 7 -47 103 -95
213 -108 244 -119 259 -160 219z"/>
<path d="M1518 1601 c-121 -39 -188 -140 -188 -281 0 -120 62 -228 152 -265
57 -23 185 -24 259 -2 66 20 69 27 69 164 0 121 -2 123 -109 123 -92 0 -120
-12 -107 -45 4 -11 22 -15 71 -15 l65 0 0 -79 c0 -46 -5 -83 -11 -86 -6 -4
-45 -9 -87 -12 -67 -4 -83 -1 -122 19 -64 33 -93 94 -94 196 -1 99 29 165 89
200 57 33 155 28 213 -11 44 -29 67 -34 77 -16 30 47 -69 110 -179 115 -39 2
-83 0 -98 -5z"/>
</g>
</svg>
