<?xml version="1.0" standalone="no"?>
<!DOCTYPE svg PUBLIC "-//W3C//DTD SVG 20010904//EN"
 "http://www.w3.org/TR/2001/REC-SVG-20010904/DTD/svg10.dtd">
<svg version="1.0" xmlns="http://www.w3.org/2000/svg"
 width="172.000000pt" height="172.000000pt" viewBox="0 0 172.000000 172.000000"
 preserveAspectRatio="xMidYMid meet">
<metadata>
Created by potrace 1.11, written by Peter Selinger 2001-2013
</metadata>
<g transform="translate(0.000000,172.000000) scale(0.100000,-0.100000)"
fill="#000000" stroke="none">
<path d="M700 1704 c-356 -76 -610 -330 -684 -682 -17 -83 -14 -274 6 -357 64
-260 233 -467 473 -580 135 -64 206 -79 365 -79 246 1 425 73 595 239 172 168
252 349 260 585 10 277 -99 519 -312 695 -100 82 -253 155 -378 180 -67 14
-261 13 -325 -1z"/>
</g>
</svg>
